PathFileType	4	(X/Y/Z)	./resultDataOpenSim/trcMotMarkerGrf/sub06/qtm-14-07.trc
DataRate	CameraRate	NumFrames	NumMarkers	Units	OrigDataRate	OrigDataStartFrame	OrigNumFrames
250.000000	250.000000	15	24	m	250.000000	1	527
Frame#	Time	L.Toe.Tip			R.Toe.Tip			L.Ankle.Lat			R.Ankle.Lat			L.Ankle.Med			R.Ankle.Med			L.Heel			R.Heel			L.Knee.Lat			R.Knee.Lat			L.Knee.Med			R.Knee.Med			L.Thigh.Upper			R.Thigh.Upper			L.ASIS			R.ASIS			V.Sacral			L.Acromium			R.Acromium			C7			L.Elbow			R.Elbow			L.Wrist.Lat			R.Wrist.Lat
		X1	Y1	Z1	X2	Y2	Z2	X3	Y3	Z3	X4	Y4	Z4	X5	Y5	Z5	X6	Y6	Z6	X7	Y7	Z7	X8	Y8	Z8	X9	Y9	Z9	X10	Y10	Z10	X11	Y11	Z11	X12	Y12	Z12	X13	Y13	Z13	X14	Y14	Z14	X15	Y15	Z15	X16	Y16	Z16	X17	Y17	Z17	X18	Y18	Z18	X19	Y19	Z19	X20	Y20	Z20	X21	Y21	Z21	X22	Y22	Z22	X23	Y23	Z23	X24	Y24	Z24

1	0	-1.5558474	0.032472385	-0.089299736	-1.189093	0.065858292	0.11205151	-1.6784839	0.069474385	-0.10156524	-1.3208416	0.081888622	0.11008572	-1.6688632	0.080531311	-0.017241123	-1.2894961	0.10602013	0.028483003	NaN	NaN	NaN	-1.3609781	0.05477763	0.035814606	-1.5389053	0.41638968	-0.11527862	-1.2855892	0.47290681	0.13593767	-1.556652	0.42124392	0.0034228097	-1.3035085	0.45610947	0.0093972238	-1.4744797	0.80326652	-0.18185504	-1.4802925	0.79830374	0.16848792	-1.3984928	0.84504828	-0.13526288	-1.3952994	0.85154029	0.10810456	-1.5801584	0.93105209	-0.0032547923	-1.4073699	1.3331452	-0.1866901	-1.4311199	1.3190442	0.17154593	-1.4911677	1.3644991	-0.012450909	-1.4430956	1.0191252	-0.27618085	-1.5770343	1.0398324	0.22891394	-1.256986	0.85139805	-0.25389425	-1.4764114	0.81693721	0.26955951
2	0.004	-1.5558036	0.0324447	-0.089339341	-1.1705985	0.067465773	0.11242074	-1.6780368	0.069660492	-0.10175136	-1.3029187	0.080122989	0.1107327	-1.6683348	0.080867281	-0.017185614	-1.2731821	0.10502915	0.029469908	NaN	NaN	NaN	-1.3424667	0.052069683	0.036470137	-1.5373584	0.41599223	-0.11542618	-1.2790148	0.47206969	0.13556025	-1.5549357	0.4209441	0.003333811	-1.2966476	0.45475482	0.008864891	-1.4698095	0.80190867	-0.18190282	-1.4743644	0.79706879	0.16857896	-1.393304	0.8436071	-0.13552844	-1.3892993	0.85033176	0.10815536	-1.5745053	0.92963137	-0.0030298131	-1.401651	1.3319275	-0.18647095	-1.4259238	1.317305	0.17191258	-1.4857945	1.3633234	-0.01207784	-1.4353417	1.0176459	-0.27656278	-1.5717693	1.0379285	0.22815152	-1.2478251	0.85170857	-0.25282621	-1.4725593	0.81512873	0.26929908
3	0.008	-1.5557668	0.032411806	-0.089376867	-1.1521845	0.069167081	0.11273941	-1.6776713	0.069886467	-0.1019031	-1.2849663	0.078558352	0.11140793	-1.6677797	0.081179567	-0.017131367	-1.2566407	0.10422297	0.030309737	NaN	NaN	NaN	-1.3240063	0.049471927	0.037265828	-1.5357334	0.41555153	-0.1155726	-1.2724541	0.47116168	0.13520221	-1.5529193	0.42066979	0.0031987282	-1.2897905	0.45334397	0.0083768823	-1.4651351	0.80054714	-0.18193901	-1.4684663	0.79583755	0.16855002	-1.3881292	0.8421786	-0.13579173	-1.3832724	0.84906573	0.1082042	-1.5688355	0.92819876	-0.0027605358	-1.3959033	1.330665	-0.18624521	-1.4206797	1.3155258	0.17225193	-1.4804018	1.3621255	-0.011717284	-1.4275436	1.0161534	-0.27686502	-1.5665385	1.0360467	0.22744945	-1.2386888	0.85198027	-0.25177835	-1.4686865	0.81329146	0.26904672
4	0.012	-1.5557426	0.03237597	-0.089411728	-1.133921	0.071023112	0.11299314	-1.6775227	0.070151797	-0.10190929	-1.2669342	0.077328723	0.11214581	-1.6672116	0.081447056	-0.017085959	-1.2398922	0.10369452	0.031023879	NaN	NaN	NaN	-1.3056157	0.047105262	0.03820346	-1.5340011	0.41505373	-0.11571749	-1.2658888	0.4701498	0.13488151	-1.5506469	0.42039419	0.0030329578	-1.2829431	0.45185181	0.0079309729	-1.4604473	0.79917642	-0.18198941	-1.4627096	0.79454649	0.16838758	-1.3829662	0.84073777	-0.13605169	-1.3771892	0.84771149	0.10824759	-1.563049	0.92672328	-0.0024952138	-1.3901028	1.3293307	-0.18599675	-1.4153788	1.3137014	0.17257035	-1.4749264	1.3608665	-0.011388352	-1.4196306	1.0146424	-0.27703128	-1.561321	1.0341582	0.22681131	-1.229577	0.85219676	-0.25074458	-1.4647773	0.81140666	0.26881077
5	0.016	-1.5557321	0.032341041	-0.089440438	-1.1158742	0.073058253	0.11320823	-1.677615	0.070424348	-0.10172333	-1.2488076	0.076484355	0.11298069	-1.6667305	0.081667177	-0.017047423	-1.2231079	0.10343206	0.031700819	NaN	NaN	NaN	-1.287338	0.045078681	0.039180062	-1.5321743	0.4145084	-0.11587083	-1.2593191	0.46903329	0.13459819	-1.5483341	0.42006429	0.0028856694	-1.2761202	0.45028084	0.007495422	-1.4557491	0.79778126	-0.18207509	-1.4571644	0.79310332	0.16817161	-1.3778121	0.83925785	-0.13630855	-1.3710335	0.84627182	0.10828126	-1.5569521	0.92515196	-0.0024074582	-1.3842669	1.3279212	-0.18572304	-1.4100447	1.3118431	0.17288964	-1.4693477	1.3595213	-0.011119281	-1.4115651	1.0131137	-0.27704872	-1.5561103	1.0322426	0.22623139	-1.2204962	0.85235581	-0.2497059	-1.4608328	0.80947202	0.2686008
6	0.02	-1.5557319	0.032304609	-0.089458302	-1.0980732	0.075282965	0.11341661	-1.6777642	0.070681897	-0.10147121	-1.23064	0.075988024	0.1139239	-1.6664444	0.081857887	-0.017003642	-1.2064146	0.10339312	0.03238544	NaN	NaN	NaN	-1.2692223	0.043420714	0.040125653	-1.5302633	0.41391825	-0.11604682	-1.2527902	0.467804	0.13432987	-1.5461465	0.41963732	0.0027903427	-1.2693212	0.44863758	0.0070472829	-1.4510662	0.79634925	-0.18220374	-1.45167	0.7914826	0.16800302	-1.3726643	0.83773535	-0.13657064	-1.3647997	0.84475378	0.1083015	-1.5503935	0.92344357	-0.0026581016	-1.3784309	1.3264435	-0.18544671	-1.404685	1.3099457	0.17321829	-1.4636965	1.3581047	-0.010884371	-1.40341	1.0115636	-0.27698005	-1.5509561	1.0303336	0.22574456	-1.2114536	0.85245157	-0.24865205	-1.4568583	0.80749273	0.26841777
7	0.024	-1.5557233	0.032263978	-0.089482667	-1.0805379	0.077701497	0.1136096	-1.6777847	0.070927445	-0.10129706	-1.2126265	0.075729129	0.1149318	-1.6663461	0.082041132	-0.01695119	-1.1899023	0.10354987	0.033093022	NaN	NaN	NaN	-1.2513121	0.042079658	0.041053098	-1.5282627	0.41327279	-0.11624535	-1.2463693	0.46644138	0.13404892	-1.5441353	0.41909559	0.0027466649	-1.2625401	0.44692264	0.0065847357	-1.4464516	0.79488092	-0.18238942	-1.445819	0.78975154	0.16799035	-1.3675184	0.83617187	-0.1368487	-1.3585075	0.84315481	0.10830712	-1.5435381	0.92164074	-0.0031324439	-1.3726069	1.3249063	-0.18518685	-1.3992984	1.3080027	0.17355409	-1.4579997	1.3566559	-0.010599012	-1.3953062	1.0099814	-0.27693311	-1.5459044	1.0284647	0.22538183	-1.2024555	0.85247562	-0.24758511	-1.4528578	0.80547323	0.26824851
8	0.028	-1.5556512	0.032228412	-0.089576954	-1.0632744	0.080313862	0.11372903	-1.6776597	0.071173139	-0.10122037	-1.1950156	0.075604805	0.11592869	-1.6663496	0.082230433	-0.016892986	-1.1736476	0.10388237	0.033828827	NaN	NaN	NaN	-1.2336389	0.040999393	0.042006534	-1.5261596	0.41256685	-0.11645747	-1.2401061	0.46493399	0.13373805	-1.5421565	0.41845063	0.0027212534	-1.2557831	0.44513064	0.0061176888	-1.4419452	0.79337474	-0.18261755	-1.4392093	0.78800487	0.16822369	-1.3623562	0.83456709	-0.13713489	-1.3521848	0.84147294	0.10829888	-1.5368218	0.91985813	-0.0034605546	-1.3667794	1.3233173	-0.18493324	-1.3938971	1.3060237	0.17389971	-1.4522663	1.3551985	-0.010218455	-1.3873379	1.0083539	-0.2769593	-1.5409388	1.0266218	0.225124	-1.1935084	0.85242639	-0.24650975	-1.4488275	0.80341821	0.26807809
9	0.032	-1.5554359	0.032219059	-0.089831306	-1.0462826	0.083122362	0.11372972	-1.6774626	0.071428713	-0.10118885	-1.1778997	0.075606078	0.1168757	-1.6664049	0.082429066	-0.016821385	-1.1577132	0.10438187	0.034583436	NaN	NaN	NaN	-1.2162344	0.040158639	0.043007504	-1.5239439	0.41181111	-0.11667821	-1.2340141	0.46329024	0.1333997	-1.5399707	0.41772261	0.0026772498	-1.2490677	0.44326127	0.0056603773	-1.4375145	0.79184083	-0.18281716	-1.4318748	0.78628743	0.16866064	-1.357142	0.83293687	-0.13739801	-1.3458382	0.83971438	0.10827675	-1.5305206	0.91816823	-0.003390116	-1.3609331	1.321687	-0.18466035	-1.3884941	1.3040247	0.17426169	-1.4465081	1.3537229	-0.0097914197	-1.3794795	1.0066791	-0.27702601	-1.5360045	1.0247739	0.22492596	-1.1846219	0.85231087	-0.24542869	-1.4447391	0.80133806	0.26790698
10	0.036	-1.5550537	0.032248256	-0.090273044	-1.0296198	0.086136856	0.11365761	-1.6772484	0.071702019	-0.1011576	-1.1611795	0.075804869	0.11779024	-1.6665072	0.082640054	-0.016722407	-1.1421438	0.10505038	0.035330367	NaN	NaN	NaN	-1.1991435	0.039546319	0.044039339	-1.5216141	0.41102254	-0.11690261	-1.2280532	0.46154044	0.13305979	-1.5374856	0.41691953	0.0026082157	-1.2424088	0.44132697	0.0052240191	-1.4330575	0.79031131	-0.18292247	-1.4243372	0.78456175	0.16911085	-1.3518367	0.83131014	-0.13760531	-1.3394638	0.8378933	0.10823838	-1.5245577	0.9165503	-0.0029701336	-1.3550679	1.3200293	-0.18435653	-1.3830848	1.3020173	0.17463998	-1.4407423	1.3522034	-0.0094027264	-1.371672	1.0049692	-0.2770891	-1.5310482	1.0229054	0.22474888	-1.1758046	0.85214243	-0.24434251	-1.4405243	0.79924796	0.26775576
11	0.04	-1.5546354	0.032298795	-0.090764467	-1.0134083	0.089370444	0.1136147	-1.6770327	0.072000429	-0.10110649	-1.1447286	0.076271096	0.11870762	-1.6666219	0.082882434	-0.016593968	-1.1269554	0.10588611	0.036035678	NaN	NaN	NaN	-1.1824173	0.039127851	0.04506707	-1.5191707	0.41021233	-0.11712162	-1.2221452	0.45972592	0.13275517	-1.5347654	0.41604754	0.0025252388	-1.2358084	0.43934642	0.0048061748	-1.4284883	0.78879777	-0.1829465	-1.4171122	0.78275604	0.16940963	-1.3464278	0.8296995	-0.13775132	-1.3330636	0.83602254	0.10817804	-1.5187301	0.91494627	-0.0023771927	-1.3491933	1.3183539	-0.18402918	-1.3776601	1.3000104	0.17502962	-1.4349781	1.3506269	-0.0090885458	-1.3638827	1.0032368	-0.27713475	-1.5260227	1.0210061	0.22456124	-1.1670508	0.85193787	-0.24324631	-1.4360704	0.79716785	0.26765615
12	0.044	-1.5544246	0.032336275	-0.091053291	-0.99772957	0.092842973	0.11362185	-1.676811	0.072331886	-0.10103446	-1.1285566	0.07700246	0.11963497	-1.6666509	0.083191334	-0.016452247	-1.1121366	0.10687804	0.036676123	NaN	NaN	NaN	-1.1660939	0.038847668	0.046072754	-1.5166099	0.40938682	-0.11732667	-1.2162191	0.45788346	0.13251613	-1.5318687	0.41511844	0.0024299818	-1.2292547	0.43733754	0.0043952607	-1.4238108	0.78726666	-0.1829424	-1.4103174	0.78084511	0.16954057	-1.3409671	0.828088	-0.13787805	-1.3266379	0.83410551	0.10808778	-1.5129146	0.91331683	-0.0017362626	-1.3433133	1.3166601	-0.18369028	-1.3722207	1.2980096	0.17543041	-1.4292132	1.3490028	-0.0088241971	-1.3560987	1.0014876	-0.27714585	-1.5208815	1.0190562	0.22433233	-1.158341	0.85170896	-0.24212843	-1.4312861	0.79511374	0.26762956
13	0.048	-1.5545428	0.032342236	-0.091014755	-0.98254678	0.096598026	0.11355638	-1.676577	0.072703866	-0.10095298	-1.1128264	0.077914825	0.12052727	-1.666469	0.083593113	-0.016328466	-1.0977002	0.10799949	0.037244461	NaN	NaN	NaN	-1.1501904	0.038659517	0.047067333	-1.5139295	0.40855101	-0.11751833	-1.2102182	0.4560497	0.13236224	-1.5287906	0.41414299	0.0023155683	-1.2227267	0.43531794	0.0039842995	-1.4190981	0.78567758	-0.18288972	-1.4037408	0.77886268	0.16957509	-1.3355668	0.82644283	-0.13807192	-1.320181	0.83214737	0.107962	-1.5070808	0.91165689	-0.0010869665	-1.3374222	1.3149413	-0.18334591	-1.3667717	1.2960174	0.1758483	-1.423443	1.3473517	-0.0085751853	-1.3483063	0.99972255	-0.27707302	-1.5155786	1.0170281	0.22403275	-1.1496543	0.85145304	-0.24097711	-1.4262511	0.79307578	0.26765598
14	0.052	-1.554843	0.032322693	-0.090788066	-0.96777624	0.10066869	0.1132579	-1.6763223	0.073119461	-0.10088216	-1.0977137	0.078902128	0.12130886	-1.6659876	0.084081182	-0.016261514	-1.0837218	0.1091987	0.037735233	NaN	NaN	NaN	-1.1347194	0.038541518	0.048060499	-1.5111354	0.40770558	-0.11770794	-1.2040971	0.45426635	0.13229695	-1.5254989	0.41313765	0.0021757242	-1.2162003	0.43330713	0.003573048	-1.4144313	0.78404672	-0.18266289	-1.397147	0.77684161	0.16956451	-1.3303228	0.82474376	-0.13842096	-1.3136836	0.83016395	0.10779812	-1.5012339	0.90998813	-0.0004126512	-1.3315146	1.3131967	-0.1829941	-1.361312	1.2940403	0.17628754	-1.4176664	1.3456917	-0.0083305939	-1.340495	0.99794148	-0.27687062	-1.5100815	1.0149005	0.2236428	-1.1409819	0.85115536	-0.23979256	-1.4212328	0.79101979	0.26767534
15	0.056	-1.5550879	0.03229089	-0.090596819	-0.95344445	0.10496324	0.11271348	-1.6760196	0.073576619	-0.1008453	-1.0832889	0.079897986	0.12192352	-1.6652335	0.084611911	-0.016269135	-1.0702816	0.11041411	0.03813691	NaN	NaN	NaN	-1.1197256	0.03848295	0.049014032	-1.5082385	0.40685158	-0.11790548	-1.1978544	0.45256489	0.13229406	-1.5219811	0.41212857	0.0020122724	-1.2096523	0.43132669	0.0031648091	-1.4098588	0.78246277	-0.18215481	-1.3904707	0.77478844	0.16951827	-1.3252255	0.82301018	-0.13894657	-1.3071326	0.82816867	0.10759257	-1.4953729	0.90833516	0.00032186611	-1.3255933	1.3114392	-0.1826283	-1.3558275	1.2920855	0.17674462	-1.411879	1.3440339	-0.008083636	-1.3326741	0.99615152	-0.27655269	-1.5044036	1.0126846	0.22317475	-1.1323441	0.85080317	-0.23859793	-1.4164559	0.78892521	0.26764146
